<?xml version="1.0" encoding="UTF-8"?>
<svg id="Calque_2" data-name="Calque 2" xmlns="http://www.w3.org/2000/svg" viewBox="0 0 518.55 744.17">
  <defs>
    <style>
      .cls-1 {
        fill: #182733;
      }

      .cls-2 {
        fill: #203244;
      }

      .cls-3 {
        fill: #942625;
      }

      .cls-4, .cls-5, .cls-6 {
        stroke-miterlimit: 10;
      }

      .cls-4, .cls-6 {
        fill: #dbd9d4;
        stroke: #1d3041;
        stroke-width: 3px;
      }

      .cls-5 {
        fill: none;
        stroke: #35444e;
        stroke-width: 17px;
      }

      .cls-7 {
        fill: #f08084;
      }

      .cls-8 {
        fill: #df312d;
      }

      .cls-6 {
        font-family: RailroadGothicATF, 'Railroad Gothic ATF';
        font-size: 80px;
      }

      .cls-9 {
        fill: #182933;
      }

      .cls-10 {
        fill: #e6332a;
      }
    </style>
  </defs>
  <g id="Calque_2-2" data-name="Calque 2">
    <g>
      <rect class="cls-4" x="41.95" y="396.82" width="438.39" height="206.77"/>
      <path class="cls-1" d="M247.41,13.83c-8.39,1.49-23.21,10.01-30.27,13.49-6.81,3.49-29.32,17.13-71.59,40.55-16.69,9.22-43.12,25.84-61.14,35.81-42.02,23.09-51.06,25.78-57.04,29.85-21.34,14.28-13.18,36.62-16.41,63.2-1.25,10.13-3.71,341.23-2.46,351.28,2.49,20.1.26,33.71,13.47,47.08,8.22,8.39,14.2,12.04,62.45,38.87,8.89,4.98,30.06,16.86,46.92,26.41,49.99,28.32,83.54,47.09,88.44,49.58,10.13,5.07,29.79,23.55,41.5,23.55s25.76-18.15,35.31-22.89c7.81-3.99,33.03-25.52,147.3-89.97,29.4-16.61,35.98-20.72,40.63-24.21,15.7-11.79,17.19-23.11,21.34-42.71,1-4.9,2.46-30.12,2.46-181.76,0-188.6,1.2-182.15-2.87-194.1-4.07-12.04-2.4-21.91-11.7-31.05-10.3-10.05-4.82-6.81-104.97-61.62-24.17-13.2-53.32-29.15-64.78-35.46-35.29-19.43-37.72-31.3-51.42-33.71-8.64-1.49-16.61-3.68-25.16-2.19ZM75.02,468.69l.17,32.39,16.69.25,16.61.17v14.87l-25.83.25c-14.2.17-25.83.17-25.91.08s-.08-18.27.08-40.44l.17-40.44,8.97.25,8.89.25.17,32.39ZM173.27,443.36v7.47h-37.79l.17,8.89.17,8.97,16.19.25,16.28.17v14.12l-16.28.17-16.28.25v18.27l18.77.25,18.77.17v14.12h-26.49c-14.62,0-27.07.25-27.82.5-1.16.5-1.33-3.4-1.33-40.28v-40.78h55.64v7.47ZM267.11,443.36v7.47h-14.95c-16.36,0-18.77.5-20.6,4.57-.66,1.49-1,8.06-1,20.43,0,19.35.58,22.92,3.99,24.75,1.08.58,7.81.91,17.52.91h15.86v14.95h-21.18c-23.5,0-25.16-.33-29.73-5.73-4.07-4.82-4.32-6.89-4.32-34.13,0-22.42.17-25.74,1.49-29.23,1.66-4.4,6.81-9.47,10.3-10.3,1.33-.25,2.74-.58,3.16-.75.5-.17,9.55-.33,20.18-.33l19.27-.08v7.47ZM331.63,437.13c5.15,1.49,10.46,6.98,11.88,12.04.58,2.24.83,11.96.66,28.9-.25,25.41-.25,25.5-2.33,29.23-1.16,1.99-3.74,4.82-5.65,6.23l-3.65,2.49-20.6.25c-19.35.25-20.84.17-23.92-1.41-1.83-.91-4.24-2.82-5.4-4.15-4.07-4.9-4.32-6.89-4.32-34.55s.08-28.65,5.4-34.71c4.15-4.73,7.64-5.4,27.07-5.48,12.54-.08,17.69.25,20.84,1.16ZM376.73,476.17v40.28h-18.27v-80.56h18.27v40.28ZM419.5,452.75c5.9,9.22,13.29,20.68,16.36,25.41l5.65,8.64v-50.91h17.44v80.64l-8.89-.25-8.89-.25-14.95-23.42c-8.3-12.87-15.45-24.08-16.03-24.91-.75-1.16-1,3.9-1,23.59l-.08,25.08-8.3.25-8.3.25v-80.97h16.19l10.8,16.86ZM64.89,558.13v19.35h-8.72v-39.03l4.4.08,4.32.17v19.43ZM83.16,540.03c.5.58,3.49,5.81,6.64,11.63l5.81,10.46.25-12.04.25-12.04h8.22v20.01c0,17.94-.17,20.01-1.33,19.52-.75-.25-2.74-.5-4.48-.5h-3.16l-6.56-11.63-6.48-11.63-.25,11.96-.25,11.88h-8.22v-39.78l4.4.58c2.33.33,4.73,1.08,5.15,1.58ZM136.72,541.94v3.57h-15.78v10.05l7.06-.25,7.06-.25v7.06h-14.12v15.53h-4.15l-4.15.08v-39.28h24.08v3.49ZM168.2,538.95c4.4,1.58,5.07,3.99,5.07,19.27s-.58,17.19-6.48,18.85c-3.99,1.08-13.87,1.08-17.85-.08-5.56-1.49-6.39-3.9-6.39-19.52,0-12.46.17-13.54,1.74-15.61,1-1.25,2.57-2.66,3.57-2.99,2.57-1.08,17.27-1,20.35.08ZM204.66,538.78c1.08.08,2.82,1,3.9,2.16,1.91,1.83,2.08,2.57,2.08,10.05s-.08,8.06-2.49,10.3l-2.49,2.33,2.91,6.06c3.4,7.23,3.57,8.3,1.08,7.89-1.08-.25-3.07-.42-4.48-.42-2.49-.08-2.82-.5-5.4-6.73l-2.82-6.64h-7.06v13.7h-8.3v-39.11l10.63.17c5.81.08,11.38.17,12.46.25ZM229.65,539.2c.42.25,2.49,4.98,4.73,10.46s4.24,9.97,4.48,9.97,2.41-4.9,4.9-10.8l4.48-10.8h10.55v39.86h-8.3v-13.12l-.08-13.04-4.32,10.13-4.32,10.21h-6.06l-3.74-8.97c-1.99-4.9-3.9-9.47-4.15-10.13s-.5,4.65-.5,11.88l-.08,13.04-4.15-.08-4.15-.17v-39.53l4.98.33c2.82.17,5.31.58,5.73.75ZM295.92,557.55c3.32,10.46,6.06,19.27,6.06,19.52s-1.91.42-4.32.33l-4.32-.17-1.33-4.07-1.41-3.99-7.14-.25-7.14-.25-.91,3.57c-.5,1.99-1.08,3.99-1.25,4.48-.33,1.08-8.72,1.33-8.72.25,0-.83,10.13-33.05,11.63-36.79.83-2.16,1-2.24,6.81-1.99l5.98.25,6.06,19.1ZM331.47,542.11v3.74l-5.15-.25-5.23-.17v32.31l-4.24-.17-4.24-.08.17-16.03.08-16.03-5.65.17-5.65.25-.25-2.74c-.17-1.49-.08-3.16.08-3.65.25-.75,4.73-1,15.2-1h14.87v3.65ZM346.67,558.13l.17,19.43h-8.3v-39.2l3.99.17,3.9.17.25,19.43ZM383.46,541.19l2.41,2.66v28.4l-2.91,2.91c-2.74,2.74-2.82,2.99-1.66,5.23.66,1.33,1.25,2.66,1.25,2.91s-1.74.42-3.9.25c-3.65-.25-4.15-.5-5.56-3.24-1.58-2.99-1.74-2.99-7.06-3.16-10.21-.25-12.04-3.57-11.54-20.84.5-17.19,1.74-18.44,17.11-18.1l9.47.25,2.41,2.74ZM402.47,553.15c0,16.94.17,17.27,6.56,17.27s6.64,0,6.89-17.02l.25-14.87,4.07-.08h4.07l.08,16.28c0,14.28-.17,16.61-1.49,18.6-2.41,3.57-6.39,4.82-15.11,4.4-8.3-.33-11.46-1.66-12.79-5.31-.5-1.16-.83-9.3-.83-18.02v-15.94h8.3v14.7ZM458.95,541.94v3.57h-17.44v9.14h15.03l-.25,3.49-.25,3.4-7.23-.17-7.31-.17v8.39h17.52l-.25,3.9-.25,3.9-12.62.17-12.71.08v-39.2h25.74v3.49Z"/>
      <path class="cls-9" d="M300.74,452.1c-3.82,1.91-4.15,3.82-4.15,24.42,0,10.8.33,20.18.83,21.43,1.41,3.57,5.65,4.82,16.03,4.4,8.72-.25,9.14-.33,11.05-2.57,1.99-2.33,1.99-2.41,1.99-23.09v-20.84l-2.41-2.41c-2.41-2.41-2.57-2.41-11.88-2.41-5.81,0-10.13.42-11.46,1.08Z"/>
      <path class="cls-9" d="M152.25,546.69c-.66.66-1,4.24-1,11.63,0,9.63.17,10.63,1.58,11.46,2.41,1.25,10.46,1.08,11.63-.33.66-.75.91-4.73.75-12.21l-.25-11.13-5.81-.25c-3.82-.17-6.15.08-6.89.83Z"/>
      <path class="cls-9" d="M190.29,551.34v5.73l4.57.17c6.98.17,8.06-.66,7.72-6.39l-.25-4.73-5.98-.25-6.06-.25v5.73Z"/>
      <path class="cls-9" d="M364.43,546.19c-1.08,1.08-.66,22.34.42,23.42,1.41,1.41,11.05,1.33,12.21-.17.66-.75.91-4.73.75-12.21l-.25-11.13-6.23-.25c-3.49-.08-6.56,0-6.89.33Z"/>
      <rect class="cls-9" x="263.37" y="538.05" width="30.73" height="54.2"/>
      <rect class="cls-9" x="277.59" y="549.39" width="30.73" height="54.2"/>
      <polyline class="cls-10" points="315.29 239.2 316.49 257.81 257.05 286.27 246.02 271.42"/>
      <polygon class="cls-8" points="246.02 211.13 327.48 172.86 343.34 180.01 340.38 253.06 339.82 254.74 338.08 254.01 320.82 263.78 298.33 273.35 284.56 280.49 273.64 308.82 271.77 274.13 309.88 249.83 313.66 243.97 314.14 202.54 273.57 221.73 270.76 229.38 261.79 239.2 261.67 220.28 246.02 211.13"/>
      <polygon class="cls-7" points="261.78 360.4 261.79 386.45 403.98 309.72 405.45 149.52 328.95 123.39 328.95 123.39 379.07 161.91 378.6 296.58 261.78 360.4"/>
      <polygon class="cls-3" points="203.22 191.17 202.61 250.34 219.76 258.44 218.71 302.43 196.26 291.78 196.86 273.48 106.08 230.43 106.32 146.18 125.41 155.06 124.64 213.58 169.54 234.75 168.98 175.35 203.22 191.17"/>
      <polygon class="cls-3" points="246.02 211.13 246.02 232.16 261.79 239.2 261.79 218.24 246.02 211.13"/>
      <polygon class="cls-8" points="203.22 191.17 299.1 144.04 299.1 96.14 257.7 74.41 106.32 146.18 125.41 155.06 251.36 94.96 273.79 107.2 273.79 126.69 168.98 175.35 203.22 191.17"/>
      <polygon class="cls-3" points="106.08 253.79 125.41 262.67 125.55 296.17 261.78 360.4 261.79 386.45 106.82 312.8 106.08 253.79"/>
      <polyline class="cls-7" points="314 214.85 277.46 231.99 273.29 233.94 261.79 239.2 261.79 218.24 343.34 180.01 340.48 258.33 289.84 282.74 289.84 307.08 261.79 322.43 261.79 278.25 312.47 254.74"/>
      <polygon class="cls-8" points="379.07 161.91 405.88 149.78 327.48 107.2 327.48 132.79 379.07 161.91"/>
      <path class="cls-5" d="M257.4,8.5c7.58.27,14.58,3.6,21.93,7.61,58.78,34.19,146.1,86.02,203.93,120.63,6.76,4.2,12.97,8.48,16.89,14.23,2.29,3.55,3.38,7.54,3.96,12.84.75,6.99.74,16.5.95,29.09.96,90.73,4.59,283.21,4.99,365.83-.32,9.04-1.36,15.36-7.68,21.8-4.49,4.6-11.68,9.52-22.03,16.39-38.97,25.47-91.55,60.08-133.13,87.25-19.03,12.5-37.42,24.51-55.65,36.44-14.15,8.84-28.71,20.79-45.53,11.96-11.17-5.1-21.21-11.45-32.3-17.82-24.74-14.5-50.25-29.36-75.69-44.26-29.88-17.35-67.69-39.65-94.11-55.04-9.96-6-22.67-13.3-26.91-18.05-6.18-6.22-6.9-12.82-7.29-21.68.1-90.24-2.46-324.32-.45-421.94,2.06-15.95,18.69-21.52,31.2-29.48C95.4,93.79,180.39,45.5,235.14,15.63c7.45-3.89,14.58-7.07,22.16-7.13h.09Z"/>
      <polygon class="cls-2" points="126.86 613.86 379.76 613.86 259.13 691.68 126.86 613.86"/>
      <text class="cls-6" transform="translate(253.69 592.23)"><tspan x="0" y="0">@</tspan></text>
      <polygon class="cls-3" points="246.02 270.93 246.02 315.38 261.79 322.43 261.79 278.25 246.02 270.93"/>
    </g>
  </g>
</svg>